<svg id="banner" xmlns="http://www.w3.org/2000/svg" width="500pt" height="132pt"> <!-- Generated via https://github.com/f0nkey/fitbit-readme-stats --> <rect width="100%" height="100%" fill="rgba(50,35,35,255)" /><style> .text {font: 600 9px "Arial", Sans-Serif; fill: rgba(230,225,196,255);} </style> <g id="padding" transform="translate(0 10)"> <text id="title" dominant-baseline="hanging" text-anchor="middle" style="font: 600 12pt 'Arial', Sans-Serif; fill: rgba(230,225,196,255)" x="250pt"> Heartrate From My FitBit Watch (Past 4 Hours) </text> <g transform="translate(0 18)"> <g transform="translate(166,0)"> 
<!-- Generated by SVGo and Plotinum VG -->
<svg width="332pt" height="100pt" viewBox="0 0 332 100"
	xmlns="http://www.w3.org/2000/svg"
	xmlns:xlink="http://www.w3.org/1999/xlink">
<g transform="scale(1, -1) translate(0, -100)">
<path d="M0,0L332,0L332,95L0,95Z" style="fill:#322323" />
<text class="text" x="77.431" y="-3.252" transform="scale(1, -1)"
	style="fill:#E6E1C4">22:00</text>
<text class="text" x="154.69" y="-3.252" transform="scale(1, -1)"
	style="fill:#E6E1C4">23:00</text>
<text class="text" x="231.96" y="-3.252" transform="scale(1, -1)"
	style="fill:#E6E1C4">00:00</text>
<text class="text" x="309.22" y="-3.252" transform="scale(1, -1)"
	style="fill:#E6E1C4">01:00</text>
<path d="M50.189,15.074L50.189,19.074" style="fill:none;stroke:#EF5D32;stroke-width:0.5" />
<path d="M69.504,15.074L69.504,19.074" style="fill:none;stroke:#EF5D32;stroke-width:0.5" />
<path d="M88.82,11.074L88.82,19.074" style="fill:none;stroke:#EF5D32;stroke-width:0.5" />
<path d="M108.14,15.074L108.14,19.074" style="fill:none;stroke:#EF5D32;stroke-width:0.5" />
<path d="M127.45,15.074L127.45,19.074" style="fill:none;stroke:#EF5D32;stroke-width:0.5" />
<path d="M146.77,15.074L146.77,19.074" style="fill:none;stroke:#EF5D32;stroke-width:0.5" />
<path d="M166.08,11.074L166.08,19.074" style="fill:none;stroke:#EF5D32;stroke-width:0.5" />
<path d="M185.4,15.074L185.4,19.074" style="fill:none;stroke:#EF5D32;stroke-width:0.5" />
<path d="M204.72,15.074L204.72,19.074" style="fill:none;stroke:#EF5D32;stroke-width:0.5" />
<path d="M224.03,15.074L224.03,19.074" style="fill:none;stroke:#EF5D32;stroke-width:0.5" />
<path d="M243.35,11.074L243.35,19.074" style="fill:none;stroke:#EF5D32;stroke-width:0.5" />
<path d="M262.66,15.074L262.66,19.074" style="fill:none;stroke:#EF5D32;stroke-width:0.5" />
<path d="M281.98,15.074L281.98,19.074" style="fill:none;stroke:#EF5D32;stroke-width:0.5" />
<path d="M301.29,15.074L301.29,19.074" style="fill:none;stroke:#EF5D32;stroke-width:0.5" />
<path d="M320.61,11.074L320.61,19.074" style="fill:none;stroke:#EF5D32;stroke-width:0.5" />
<path d="M43.75,19.074L330.91,19.074" style="fill:none;stroke:#EF5D32;stroke-width:0.5" />
<text class="text" x="5" y="-24.214" transform="scale(1, -1)"
	style="fill:#E6E1C4">75.00</text>
<text class="text" x="0" y="-51.397" transform="scale(1, -1)"
	style="fill:#E6E1C4">100.00</text>
<text class="text" x="0" y="-78.58" transform="scale(1, -1)"
	style="fill:#E6E1C4">125.00</text>
<path d="M30,26.499L38,26.499" style="fill:none;stroke:#EF5D32;stroke-width:0.5" />
<path d="M30,53.682L38,53.682" style="fill:none;stroke:#EF5D32;stroke-width:0.5" />
<path d="M30,80.865L38,80.865" style="fill:none;stroke:#EF5D32;stroke-width:0.5" />
<path d="M34,31.935L38,31.935" style="fill:none;stroke:#EF5D32;stroke-width:0.5" />
<path d="M34,37.372L38,37.372" style="fill:none;stroke:#EF5D32;stroke-width:0.5" />
<path d="M34,42.809L38,42.809" style="fill:none;stroke:#EF5D32;stroke-width:0.5" />
<path d="M34,48.245L38,48.245" style="fill:none;stroke:#EF5D32;stroke-width:0.5" />
<path d="M34,59.118L38,59.118" style="fill:none;stroke:#EF5D32;stroke-width:0.5" />
<path d="M34,64.555L38,64.555" style="fill:none;stroke:#EF5D32;stroke-width:0.5" />
<path d="M34,69.992L38,69.992" style="fill:none;stroke:#EF5D32;stroke-width:0.5" />
<path d="M34,75.428L38,75.428" style="fill:none;stroke:#EF5D32;stroke-width:0.5" />
<path d="M34,86.301L38,86.301" style="fill:none;stroke:#EF5D32;stroke-width:0.5" />
<path d="M34,91.738L38,91.738" style="fill:none;stroke:#EF5D32;stroke-width:0.5" />
<path d="M38,24.324L38,95" style="fill:none;stroke:#EF5D32;stroke-width:0.5" />
<path d="M43.75,37.372L45.038,37.372L46.325,34.11L47.613,34.11L48.901,41.721L50.189,46.071L51.476,44.983L52.764,39.547L54.052,29.761L55.34,28.673L56.627,25.412L57.915,26.499L59.203,27.586L60.49,27.586L61.778,33.023L63.066,33.023L64.354,28.673L65.641,31.935L66.929,30.848L68.217,36.285L69.504,37.372L70.792,28.673L72.08,35.197L73.368,47.158L74.655,49.333L75.943,42.809L77.231,40.634L78.519,37.372L79.806,36.285L81.094,37.372L82.382,35.197L83.669,38.459L84.957,42.809L86.245,41.721L87.533,39.547L88.82,40.634L90.108,49.333L91.396,47.158L92.684,43.896L93.971,44.983L95.259,43.896L96.547,46.071L97.834,48.245L99.122,51.507L100.41,47.158L101.7,46.071L102.99,47.158L104.27,49.333L105.56,48.245L106.85,42.809L108.14,39.547L109.42,38.459L110.71,35.197L112,30.848L113.29,33.023L114.57,33.023L115.86,31.935L117.15,29.761L118.44,29.761L119.73,29.761L121.01,30.848L122.3,31.935L123.59,35.197L124.88,34.11L126.16,38.459L127.45,35.197L128.74,35.197L130.03,35.197L131.32,37.372L132.6,38.459L133.89,37.372L135.18,37.372L136.47,37.372L137.75,37.372L139.04,37.372L140.33,38.459L141.62,37.372L142.9,35.197L144.19,35.197L145.48,35.197L146.77,34.11L148.06,28.673L149.34,33.023L150.63,35.197L151.92,37.372L153.21,36.285L154.49,34.11L155.78,33.023L157.07,34.11L158.36,34.11L159.65,31.935L160.93,33.023L162.22,35.197L163.51,39.547L164.8,43.896L166.08,61.293L167.37,93.913L168.66,95L169.95,76.516L171.23,63.468L172.52,66.73L173.81,55.856L175.1,38.459L176.39,40.634L177.67,31.935L178.96,28.673L180.25,28.673L181.54,29.761L182.82,34.11L184.11,38.459L185.4,33.023L186.69,36.285L187.98,36.285L189.26,34.11L190.55,33.023L191.84,31.935L193.13,33.023L194.41,30.848L195.7,26.499L196.99,28.673L198.28,30.848L199.56,34.11L200.85,35.197L202.14,36.285L203.43,38.459L204.72,42.809L206,39.547L207.29,37.372L208.58,38.459L209.87,43.896L211.15,42.809L212.44,46.071L213.73,68.904L215.02,56.944L216.31,38.459L217.59,39.547L221.46,39.547L222.74,61.293L224.03,66.73L225.32,73.254L226.61,38.459L227.89,36.285L229.18,33.023L230.47,31.935L231.76,34.11L233.05,34.11L234.33,28.673L235.62,27.586L236.91,34.11L238.2,37.372L239.48,34.11L240.77,36.285L242.06,34.11L243.35,34.11L244.64,36.285L245.92,35.197L247.21,36.285L248.5,34.11L249.79,36.285L251.07,37.372L252.36,37.372L253.65,27.586L254.94,28.673L256.22,36.285L257.51,37.372L258.8,41.721L260.09,48.245L261.38,42.809L262.66,36.285L263.95,35.197L265.24,33.023L266.53,30.848L267.81,29.761L269.1,29.761L270.39,29.761L271.68,34.11L272.97,38.459L274.25,42.809L275.54,40.634L276.83,40.634L278.12,37.372L279.4,38.459L280.69,37.372L281.98,24.324L283.27,31.935L284.55,39.547L285.84,40.634L287.13,35.197L288.42,38.459L289.71,35.197L290.99,31.935L292.28,30.848L293.57,31.935L294.86,30.848L296.14,35.197L297.43,38.459L298.72,38.459L300.01,36.285L301.29,37.372L302.58,31.935L303.87,35.197L305.16,39.547L306.45,37.372L307.73,37.372L309.02,37.372L310.31,41.721L311.6,37.372L312.88,33.023L314.17,24.324L315.46,33.023L316.75,34.11L318.04,36.285L319.32,33.023L320.61,35.197L321.9,34.11L323.19,34.11L324.47,35.197L325.76,28.673L327.05,26.499L328.34,27.586L329.62,30.848L330.91,34.11" style="fill:none;stroke:#EFAC32" />
</g>
</svg>
 </g><g transform="translate(0 -22)"> 
	<svg width="166" height="166" viewBox="0 0 221 221">
		<g transform="translate(110 110)">
			<path transform="translate(-50 -50)" fill="rgba(239,172,50,255)" d="M92.71,7.27L92.71,7.27c-9.71-9.69-25.46-9.69-35.18,0L50,14.79l-7.54-7.52C32.75-2.42,17-2.42,7.29,7.27v0 c-9.71,9.69-9.71,25.41,0,35.1L50,85l42.71-42.63C102.43,32.68,102.43,16.96,92.71,7.27z"></path>
			<animateTransform 
			  attributeName="transform" 
			  type="scale" 
			  values="1; 1.5; 1.25; 1;" 
			  dur="731ms"
			  additive="sum"
			  repeatCount="indefinite">      
			</animateTransform>
		</g>
	</svg>
	 </g><g width="0" height="0" transform="translate(83 50)"> 
		<text id="current-bpm-text" class="text" text-anchor="middle" x="0" y="79">Current BPM</text>
		<text id="bpm-number" class="text" dominant-baseline="middle" text-anchor="middle" x="0" y="0">82</text>
		<style> #current-bpm-text {font-size: 19pt; fill: rgba(230,225,196,255);}  #bpm-number {font-size: 35px; fill: rgba(50,35,35,255);}</style>
 </g> </g> </g> </svg>