
<svg xmlns="http://www.w3.org/2000/svg" id="banner" width="500pt" height="132pt">
	<!-- Generated via https://github.com/f0nkey/fitbit-readme-stats -->
	<rect width="100%" height="100%" fill="rgba(50, 35, 35, 255)"/>
	<style> .text {font: 600 9px "Arial", Sans-Serif; fill: rgba(50, 35, 35, 255);} </style>
	<g id="padding" transform="translate(0 10)">
		<text id="title" dominant-baseline="hanging" text-anchor="middle" style="font: 600 12pt 'Arial', Sans-Serif; fill: rgba(230, 225, 196, 255)" x="250pt"> 
			Heart Rate From F0nkey's FitBit Watch (Past 4 Hours)
		</text>
		
		<g id="main-content" transform="translate(0 18)">
			<g id="plot" transform="translate(166,0)">
				<!-- Generated by SVGo and Plotinum VG -->
				<g transform="translate(0,0)"> 
<!-- Generated by SVGo and Plotinum VG -->
<svg width="332pt" height="100pt" viewBox="0 0 332 100"
	xmlns="http://www.w3.org/2000/svg"
	xmlns:xlink="http://www.w3.org/1999/xlink">
<g transform="scale(1, -1) translate(0, -100)">
<path d="M0,0L332,0L332,95L0,95Z" style="fill:#322323" />
<text class="text" x="48.386" y="-3.252" transform="scale(1, -1)"
	style="fill:#E6E1C4">00:00</text>
<text class="text" x="128.85" y="-3.252" transform="scale(1, -1)"
	style="fill:#E6E1C4">01:00</text>
<text class="text" x="209.31" y="-3.252" transform="scale(1, -1)"
	style="fill:#E6E1C4">02:00</text>
<text class="text" x="289.77" y="-3.252" transform="scale(1, -1)"
	style="fill:#E6E1C4">03:00</text>
<path d="M39.66,15.074L39.66,19.074" style="fill:none;stroke:#EF5D32;stroke-width:0.5" />
<path d="M59.775,11.074L59.775,19.074" style="fill:none;stroke:#EF5D32;stroke-width:0.5" />
<path d="M79.89,15.074L79.89,19.074" style="fill:none;stroke:#EF5D32;stroke-width:0.5" />
<path d="M100.01,15.074L100.01,19.074" style="fill:none;stroke:#EF5D32;stroke-width:0.5" />
<path d="M120.12,15.074L120.12,19.074" style="fill:none;stroke:#EF5D32;stroke-width:0.5" />
<path d="M140.24,11.074L140.24,19.074" style="fill:none;stroke:#EF5D32;stroke-width:0.5" />
<path d="M160.35,15.074L160.35,19.074" style="fill:none;stroke:#EF5D32;stroke-width:0.5" />
<path d="M180.47,15.074L180.47,19.074" style="fill:none;stroke:#EF5D32;stroke-width:0.5" />
<path d="M200.58,15.074L200.58,19.074" style="fill:none;stroke:#EF5D32;stroke-width:0.5" />
<path d="M220.7,11.074L220.7,19.074" style="fill:none;stroke:#EF5D32;stroke-width:0.5" />
<path d="M240.81,15.074L240.81,19.074" style="fill:none;stroke:#EF5D32;stroke-width:0.5" />
<path d="M260.93,15.074L260.93,19.074" style="fill:none;stroke:#EF5D32;stroke-width:0.5" />
<path d="M281.04,15.074L281.04,19.074" style="fill:none;stroke:#EF5D32;stroke-width:0.5" />
<path d="M301.16,11.074L301.16,19.074" style="fill:none;stroke:#EF5D32;stroke-width:0.5" />
<path d="M321.27,15.074L321.27,19.074" style="fill:none;stroke:#EF5D32;stroke-width:0.5" />
<path d="M26.25,19.074L332,19.074" style="fill:none;stroke:#EF5D32;stroke-width:0.5" />
<text class="text" x="0" y="-26.751" transform="scale(1, -1)"
	style="fill:#E6E1C4">60</text>
<text class="text" x="0" y="-50.309" transform="scale(1, -1)"
	style="fill:#E6E1C4">70</text>
<text class="text" x="0" y="-73.868" transform="scale(1, -1)"
	style="fill:#E6E1C4">80</text>
<path d="M12.5,29.036L20.5,29.036" style="fill:none;stroke:#EF5D32;stroke-width:0.5" />
<path d="M12.5,52.595L20.5,52.595" style="fill:none;stroke:#EF5D32;stroke-width:0.5" />
<path d="M12.5,76.153L20.5,76.153" style="fill:none;stroke:#EF5D32;stroke-width:0.5" />
<path d="M16.5,33.748L20.5,33.748" style="fill:none;stroke:#EF5D32;stroke-width:0.5" />
<path d="M16.5,38.459L20.5,38.459" style="fill:none;stroke:#EF5D32;stroke-width:0.5" />
<path d="M16.5,43.171L20.5,43.171" style="fill:none;stroke:#EF5D32;stroke-width:0.5" />
<path d="M16.5,47.883L20.5,47.883" style="fill:none;stroke:#EF5D32;stroke-width:0.5" />
<path d="M16.5,57.306L20.5,57.306" style="fill:none;stroke:#EF5D32;stroke-width:0.5" />
<path d="M16.5,62.018L20.5,62.018" style="fill:none;stroke:#EF5D32;stroke-width:0.5" />
<path d="M16.5,66.73L20.5,66.73" style="fill:none;stroke:#EF5D32;stroke-width:0.5" />
<path d="M16.5,71.441L20.5,71.441" style="fill:none;stroke:#EF5D32;stroke-width:0.5" />
<path d="M16.5,80.865L20.5,80.865" style="fill:none;stroke:#EF5D32;stroke-width:0.5" />
<path d="M16.5,85.577L20.5,85.577" style="fill:none;stroke:#EF5D32;stroke-width:0.5" />
<path d="M16.5,90.288L20.5,90.288" style="fill:none;stroke:#EF5D32;stroke-width:0.5" />
<path d="M16.5,95L20.5,95" style="fill:none;stroke:#EF5D32;stroke-width:0.5" />
<path d="M20.5,24.324L20.5,95" style="fill:none;stroke:#EF5D32;stroke-width:0.5" />
<path d="M26.25,59.662L27.591,50.239L28.932,31.392L30.273,33.748L31.614,24.324L32.955,26.68L34.296,40.815L35.637,38.459L36.978,52.595L38.319,47.883L39.66,43.171L41.001,43.171L42.342,38.459L43.683,47.883L45.024,59.662L46.365,80.865L47.706,83.221L49.047,92.644L50.388,57.306L51.729,54.95L53.07,66.73L54.411,59.662L55.752,64.374L57.093,62.018L58.434,62.018L59.775,64.374L61.116,64.374L62.457,57.306L63.798,59.662L65.139,62.018L66.48,64.374L67.821,64.374L69.162,64.374L70.503,62.018L71.844,59.662L73.185,57.306L74.526,59.662L75.867,62.018L77.208,76.153L78.549,64.374L79.89,57.306L81.231,62.018L82.572,64.374L83.913,64.374L85.254,59.662L86.595,59.662L87.936,62.018L89.277,66.73L90.618,69.086L91.959,62.018L93.3,59.662L94.641,66.73L95.982,66.73L97.323,64.374L98.664,64.374L100.01,71.441L101.35,66.73L102.69,66.73L104.03,66.73L105.37,66.73L106.71,64.374L108.05,64.374L109.39,64.374L110.73,66.73L112.07,64.374L113.42,64.374L114.76,64.374L116.1,54.95L117.44,47.883L118.78,57.306L120.12,47.883L121.46,52.595L122.8,52.595L124.14,43.171L125.48,54.95L126.83,57.306L128.17,43.171L129.51,43.171L130.85,59.662L132.19,47.883L133.53,43.171L134.87,45.527L136.21,57.306L137.55,71.441L138.89,83.221L140.24,92.644L141.58,90.288L142.92,95L144.26,87.932L145.6,83.221L146.94,85.577L148.28,83.221L149.62,71.441L150.96,64.374L152.3,66.73L153.65,66.73L154.99,59.662L156.33,54.95L157.67,57.306L159.01,62.018L160.35,59.662L161.69,50.239L163.03,40.815L164.37,47.883L165.71,52.595L167.06,57.306L168.4,52.595L169.74,50.239L171.08,52.595L172.42,50.239L173.76,52.595L175.1,47.883L176.44,47.883L177.78,59.662L179.12,45.527L180.47,36.104L181.81,43.171L183.15,47.883L184.49,43.171L185.83,38.459L187.17,43.171L188.51,50.239L189.85,47.883L191.19,50.239L192.54,38.459L193.88,47.883L195.22,52.595L196.56,54.95L197.9,54.95L199.24,43.171L200.58,40.815L201.92,45.527L203.26,45.527L204.6,47.883L205.95,50.239L207.29,47.883L208.63,50.239L209.97,54.95L211.31,50.239L212.65,57.306L213.99,33.748L215.33,33.748L216.67,33.748L218.01,40.815L219.36,45.527L220.7,45.527L222.04,33.748L223.38,43.171L224.72,43.171L226.06,40.815L227.4,43.171L228.74,73.797L230.08,66.73L231.42,59.662L232.77,54.95L234.11,47.883L235.45,62.018L236.79,31.392L238.13,38.459L239.47,40.815L240.81,40.815L242.15,45.527L243.49,43.171L244.83,43.171L246.18,47.883L247.52,50.239L248.86,45.527L250.2,50.239L251.54,54.95L252.88,66.73L254.22,52.595L255.56,47.883L256.9,50.239L258.24,52.595L259.59,57.306L260.93,50.239L262.27,54.95L263.61,54.95L264.95,52.595L266.29,47.883L267.63,47.883L268.97,47.883L270.31,45.527L271.65,47.883L273,50.239L274.34,52.595L275.68,54.95L277.02,50.239L278.36,50.239L279.7,45.527L281.04,43.171L282.38,45.527L283.72,50.239L285.06,43.171L286.41,54.95L287.75,57.306L289.09,43.171L290.43,45.527L291.77,52.595L293.11,45.527L294.45,40.815L295.79,50.239L297.13,40.815L298.47,45.527L299.82,38.459L301.16,43.171L302.5,38.459L303.84,43.171L305.18,40.815L306.52,59.662L307.86,54.95L309.2,47.883L310.54,50.239L311.88,47.883L313.23,45.527L314.57,43.171L315.91,38.459L317.25,40.815L318.59,36.104L319.93,36.104L321.27,31.392L322.61,38.459L323.95,40.815L325.29,36.104L326.64,52.595L327.98,43.171L329.32,73.797L330.66,64.374L332,45.527" style="fill:none;stroke:#EFAC32" />
</g>
</svg>
 </g>
			</g>
			<g id="heart">
				<g transform="translate(0 -22)"> 
	<svg width="166" height="166" viewBox="0 0 221 221">
		<g transform="translate(110 110)">
			<path transform="translate(-50 -50)" fill="rgba(239, 172, 50, 255)" d="M92.71,7.27L92.71,7.27c-9.71-9.69-25.46-9.69-35.18,0L50,14.79l-7.54-7.52C32.75-2.42,17-2.42,7.29,7.27v0 c-9.71,9.69-9.71,25.41,0,35.1L50,85l42.71-42.63C102.43,32.68,102.43,16.96,92.71,7.27z"></path>
			<animateTransform 
			  attributeName="transform" 
			  type="scale" 
			  values="1; 1.5; 1.25; 1;" 
			  dur="895ms"
			  additive="sum"
			  repeatCount="indefinite">      
			</animateTransform>
		</g>
	</svg>
	 </g>
			</g>
			<g id="heart-text" transform="translate(  83 50)">
				<text id="current-bpm-text" class="text" text-anchor="middle" x="0" y="79">Current BPM</text>
				<text id="bpm-number" class="text" dominant-baseline="middle" text-anchor="middle" x="0" y="0">67</text>
				<style> #current-bpm-text {font-size: 19pt; fill: rgba(230, 225, 196, 255);}  #bpm-number {font-size: 35px; fill: rgba(50, 35, 35, 255);}</style>
			</g>
		</g>
	</g>
</svg>