
<svg xmlns="http://www.w3.org/2000/svg" id="banner" width="500pt" height="132pt">
	<!-- Generated via https://github.com/f0nkey/fitbit-readme-stats -->
	<rect width="100%" height="100%" fill="rgba(50, 35, 35, 255)"/>
	<style> .text {font: 600 9px "Arial", Sans-Serif; fill: rgba(50, 35, 35, 255);} </style>
	<g id="padding" transform="translate(0 10)">
		<text id="title" dominant-baseline="hanging" text-anchor="middle" style="font: 600 12pt 'Arial', Sans-Serif; fill: rgba(230, 225, 196, 255)" x="250pt"> 
			My Heart Rate From My FitBit Watch (Past 4 Hours)
		</text>
		
		
		
			<g id="tz">
				<title>Central Daylight Time (North America)</title>
				<text id="title" dominant-baseline="hanging" text-anchor="end" style="font: 600 8pt 'Arial', Sans-Serif; fill: rgba(230, 225, 196, 255);" x="495pt">Times in CDT</text>
			</g>
		
		<g id="main-content" transform="translate(0 18)">
			<g id="plot" transform="translate(166,0)">
				<!-- Generated by SVGo and Plotinum VG -->
				<g transform="translate(0,0)"> 
<!-- Generated by SVGo and Plotinum VG -->
<svg width="332pt" height="100pt" viewBox="0 0 332 100"
	xmlns="http://www.w3.org/2000/svg"
	xmlns:xlink="http://www.w3.org/1999/xlink">
<g transform="scale(1, -1) translate(0, -100)">
<path d="M0,0L332,0L332,95L0,95Z" style="fill:#322323" />
<text class="text" x="82.955" y="-3.2178" transform="scale(1, -1)"
	style="fill:#E6E1C4">21:00</text>
<text class="text" x="163.97" y="-3.2178" transform="scale(1, -1)"
	style="fill:#E6E1C4">22:00</text>
<text class="text" x="244.99" y="-3.2178" transform="scale(1, -1)"
	style="fill:#E6E1C4">23:00</text>
<path d="M33.58,16.847L33.58,20.847" style="fill:none;stroke:#EF5D32;stroke-width:0.5" />
<path d="M53.834,16.847L53.834,20.847" style="fill:none;stroke:#EF5D32;stroke-width:0.5" />
<path d="M74.089,16.847L74.089,20.847" style="fill:none;stroke:#EF5D32;stroke-width:0.5" />
<path d="M94.344,12.847L94.344,20.847" style="fill:none;stroke:#EF5D32;stroke-width:0.5" />
<path d="M114.6,16.847L114.6,20.847" style="fill:none;stroke:#EF5D32;stroke-width:0.5" />
<path d="M134.85,16.847L134.85,20.847" style="fill:none;stroke:#EF5D32;stroke-width:0.5" />
<path d="M155.11,16.847L155.11,20.847" style="fill:none;stroke:#EF5D32;stroke-width:0.5" />
<path d="M175.36,12.847L175.36,20.847" style="fill:none;stroke:#EF5D32;stroke-width:0.5" />
<path d="M195.62,16.847L195.62,20.847" style="fill:none;stroke:#EF5D32;stroke-width:0.5" />
<path d="M215.87,16.847L215.87,20.847" style="fill:none;stroke:#EF5D32;stroke-width:0.5" />
<path d="M236.13,16.847L236.13,20.847" style="fill:none;stroke:#EF5D32;stroke-width:0.5" />
<path d="M256.38,12.847L256.38,20.847" style="fill:none;stroke:#EF5D32;stroke-width:0.5" />
<path d="M276.64,16.847L276.64,20.847" style="fill:none;stroke:#EF5D32;stroke-width:0.5" />
<path d="M296.89,16.847L296.89,20.847" style="fill:none;stroke:#EF5D32;stroke-width:0.5" />
<path d="M317.15,16.847L317.15,20.847" style="fill:none;stroke:#EF5D32;stroke-width:0.5" />
<path d="M30.879,20.847L332,20.847" style="fill:none;stroke:#EF5D32;stroke-width:0.5" />
<text class="text" x="4.6289" y="-25.866" transform="scale(1, -1)"
	style="fill:#E6E1C4">70</text>
<text class="text" x="4.6289" y="-55.619" transform="scale(1, -1)"
	style="fill:#E6E1C4">90</text>
<text class="text" x="0" y="-85.371" transform="scale(1, -1)"
	style="fill:#E6E1C4">110</text>
<path d="M17.129,29.072L25.129,29.072" style="fill:none;stroke:#EF5D32;stroke-width:0.5" />
<path d="M17.129,58.824L25.129,58.824" style="fill:none;stroke:#EF5D32;stroke-width:0.5" />
<path d="M17.129,88.577L25.129,88.577" style="fill:none;stroke:#EF5D32;stroke-width:0.5" />
<path d="M21.129,43.948L25.129,43.948" style="fill:none;stroke:#EF5D32;stroke-width:0.5" />
<path d="M21.129,73.7L25.129,73.7" style="fill:none;stroke:#EF5D32;stroke-width:0.5" />
<path d="M25.129,26.097L25.129,93.04" style="fill:none;stroke:#EF5D32;stroke-width:0.5" />
<path d="M30.879,75.188L30.879,75.188L32.229,66.262L33.58,79.651L34.93,91.552L36.28,85.601L37.631,78.163L38.981,81.139L40.331,82.626L41.681,79.651L43.032,81.139L44.382,81.139L45.732,81.139L47.083,93.04L48.433,84.114L49.783,69.238L51.134,61.8L52.484,69.238L53.834,66.262L55.185,76.676L56.535,70.725L57.885,76.676L59.236,82.626L60.586,75.188L61.936,81.139L63.287,81.139L64.637,82.626L65.987,76.676L67.338,72.213L68.688,75.188L70.038,72.213L71.388,79.651L72.739,81.139L74.089,82.626L75.439,78.163L76.79,67.75L78.14,73.7L79.49,67.75L80.841,61.8L82.191,73.7L83.541,73.7L84.892,73.7L86.242,72.213L87.592,79.651L88.943,85.601L90.293,78.163L91.643,75.188L92.994,76.676L94.344,76.676L95.694,75.188L97.045,75.188L98.395,76.676L99.745,79.651L101.1,78.163L102.45,76.676L103.8,78.163L105.15,76.676L106.5,75.188L107.85,70.725L109.2,73.7L110.55,70.725L111.9,66.262L113.25,70.725L114.6,70.725L115.95,69.238L117.3,76.676L118.65,75.188L120,82.626L121.35,72.213L122.7,54.361L124.05,70.725L125.4,70.725L126.75,64.775L128.1,64.775L129.45,63.287L130.8,61.8L132.15,61.8L133.5,57.337L134.85,57.337L136.2,54.361L137.55,54.361L138.9,54.361L140.25,55.849L141.61,57.337L142.96,55.849L144.31,54.361L145.66,51.386L147.01,51.386L148.36,52.874L149.71,51.386L151.06,51.386L152.41,49.899L153.76,51.386L155.11,52.874L156.46,54.361L157.81,52.874L159.16,42.46L160.51,29.072L161.86,32.047L163.21,33.535L164.56,48.411L165.91,58.824L167.26,52.874L168.61,55.849L169.96,52.874L171.31,55.849L172.66,63.287L174.01,63.287L175.36,69.238L176.71,52.874L178.06,48.411L179.41,49.899L180.76,51.386L182.11,48.411L183.46,48.411L184.82,52.874L186.17,58.824L187.52,54.361L188.87,54.361L190.22,49.899L191.57,54.361L192.92,54.361L194.27,52.874L195.62,52.874L196.97,52.874L198.32,52.874L199.67,52.874L201.02,54.361L202.37,55.849L203.72,51.386L205.07,49.899L206.42,54.361L207.77,57.337L209.12,48.411L210.47,45.436L211.82,43.948L213.17,42.46L214.52,42.46L215.87,51.386L217.22,46.923L218.57,45.436L219.92,45.436L221.27,49.899L222.62,57.337L223.97,57.337L225.32,61.8L226.68,60.312L228.03,55.849L229.38,58.824L230.73,51.386L232.08,52.874L233.43,69.238L234.78,51.386L236.13,46.923L237.48,43.948L238.83,42.46L240.18,48.411L241.53,46.923L242.88,43.948L244.23,48.411L245.58,46.923L246.93,43.948L248.28,43.948L249.63,46.923L250.98,48.411L252.33,45.436L253.68,39.485L255.03,43.948L256.38,45.436L257.73,46.923L259.08,45.436L260.43,46.923L261.78,42.46L263.13,37.998L264.48,36.51L265.83,35.022L267.18,43.948L268.54,40.973L269.89,45.436L271.24,36.51L272.59,40.973L273.94,39.485L275.29,37.998L276.64,39.485L277.99,39.485L279.34,36.51L280.69,43.948L282.04,36.51L283.39,60.312L284.74,57.337L286.09,52.874L287.44,49.899L288.79,49.899L290.14,51.386L291.49,51.386L292.84,49.899L294.19,49.899L295.54,51.386L296.89,49.899L298.24,52.874L299.59,51.386L300.94,49.899L302.29,45.436L303.64,43.948L304.99,43.948L306.34,42.46L307.69,49.899L309.04,39.485L310.39,37.998L311.75,37.998L313.1,37.998L314.45,39.485L315.8,40.973L317.15,46.923L318.5,43.948L319.85,32.047L321.2,30.56L322.55,26.097L323.9,32.047L325.25,30.56L326.6,35.022L327.95,35.022L329.3,43.948L330.65,48.411L332,49.899" style="fill:none;stroke:#EFAC32" />
</g>
</svg>
 </g>
			</g>
			<g id="heart">
				<g transform="translate(0 -22)"> 
	<svg width="166" height="166" viewBox="0 0 221 221">
		<g transform="translate(110 110)">
			<path transform="translate(-50 -50)" fill="rgba(239, 172, 50, 255)" d="M92.71,7.27L92.71,7.27c-9.71-9.69-25.46-9.69-35.18,0L50,14.79l-7.54-7.52C32.75-2.42,17-2.42,7.29,7.27v0 c-9.71,9.69-9.71,25.41,0,35.1L50,85l42.71-42.63C102.43,32.68,102.43,16.96,92.71,7.27z"></path>
			<animateTransform 
			  attributeName="transform" 
			  type="scale" 
			  values="1; 1.5; 1.25; 1;" 
			  dur="714ms"
			  additive="sum"
			  repeatCount="indefinite">      
			</animateTransform>
		</g>
	</svg>
	 </g>
			</g>
			<g id="heart-text" transform="translate(  83 50)">
				<text id="current-bpm-text" class="text" text-anchor="middle" x="0" y="79">Current BPM</text>
				<text id="bpm-number" class="text" dominant-baseline="middle" text-anchor="middle" x="0" y="0">84</text>
				<style> #current-bpm-text {font-size: 19pt; fill: rgba(230, 225, 196, 255);}  #bpm-number {font-size: 35px; fill: rgba(50, 35, 35, 255);}</style>
			</g>
		</g>
	</g>
</svg>