
<svg xmlns="http://www.w3.org/2000/svg" id="banner" width="500pt" height="132pt">
	<!-- Generated via https://github.com/f0nkey/fitbit-readme-stats -->
	<rect width="100%" height="100%" fill="rgba(255, 255, 255, 255)"/>
	<style> .text {font: 600 9px "Arial", Sans-Serif; fill: rgba(255, 255, 255, 255);} </style>
	<g id="padding" transform="translate(0 10)">
		<text id="title" dominant-baseline="hanging" text-anchor="middle" style="font: 600 12pt 'Arial', Sans-Serif; fill: rgba(47, 128, 237, 255)" x="250pt"> 
			My Heart Rate From My FitBit Watch (Past 4 Hours)
		</text>
		
		
		
			<g id="tz">
				<title>Central Daylight Time (North America)</title>
				<text id="title" dominant-baseline="hanging" text-anchor="end" style="font: 600 8pt 'Arial', Sans-Serif; fill: rgba(51, 51, 51, 255);" x="495pt">Times in CDT</text>
			</g>
		
		<g id="main-content" transform="translate(0 18)">
			<g id="plot" transform="translate(166,0)">
				<!-- Generated by SVGo and Plotinum VG -->
				<g transform="translate(0,0)"> 
<!-- Generated by SVGo and Plotinum VG -->
<svg width="332pt" height="100pt" viewBox="0 0 332 100"
	xmlns="http://www.w3.org/2000/svg"
	xmlns:xlink="http://www.w3.org/1999/xlink">
<g transform="scale(1, -1) translate(0, -100)">
<path d="M0,0L332,0L332,95L0,95Z" style="fill:#FFFFFF" />
<text class="text" x="69.55" y="-3.2178" transform="scale(1, -1)"
	style="fill:#333333">21:00</text>
<text class="text" x="148.01" y="-3.2178" transform="scale(1, -1)"
	style="fill:#333333">22:00</text>
<text class="text" x="226.46" y="-3.2178" transform="scale(1, -1)"
	style="fill:#333333">23:00</text>
<text class="text" x="304.92" y="-3.2178" transform="scale(1, -1)"
	style="fill:#333333">00:00</text>
<path d="M41.711,16.847L41.711,20.847" style="fill:none;stroke:#333333;stroke-width:0.5" />
<path d="M61.325,16.847L61.325,20.847" style="fill:none;stroke:#333333;stroke-width:0.5" />
<path d="M80.939,12.847L80.939,20.847" style="fill:none;stroke:#333333;stroke-width:0.5" />
<path d="M100.55,16.847L100.55,20.847" style="fill:none;stroke:#333333;stroke-width:0.5" />
<path d="M120.17,16.847L120.17,20.847" style="fill:none;stroke:#333333;stroke-width:0.5" />
<path d="M139.78,16.847L139.78,20.847" style="fill:none;stroke:#333333;stroke-width:0.5" />
<path d="M159.4,12.847L159.4,20.847" style="fill:none;stroke:#333333;stroke-width:0.5" />
<path d="M179.01,16.847L179.01,20.847" style="fill:none;stroke:#333333;stroke-width:0.5" />
<path d="M198.62,16.847L198.62,20.847" style="fill:none;stroke:#333333;stroke-width:0.5" />
<path d="M218.24,16.847L218.24,20.847" style="fill:none;stroke:#333333;stroke-width:0.5" />
<path d="M237.85,12.847L237.85,20.847" style="fill:none;stroke:#333333;stroke-width:0.5" />
<path d="M257.47,16.847L257.47,20.847" style="fill:none;stroke:#333333;stroke-width:0.5" />
<path d="M277.08,16.847L277.08,20.847" style="fill:none;stroke:#333333;stroke-width:0.5" />
<path d="M296.69,16.847L296.69,20.847" style="fill:none;stroke:#333333;stroke-width:0.5" />
<path d="M316.31,12.847L316.31,20.847" style="fill:none;stroke:#333333;stroke-width:0.5" />
<path d="M31.25,20.847L332,20.847" style="fill:none;stroke:#333333;stroke-width:0.5" />
<text class="text" x="5" y="-37.31" transform="scale(1, -1)"
	style="fill:#333333">80</text>
<text class="text" x="0" y="-61.34" transform="scale(1, -1)"
	style="fill:#333333">100</text>
<text class="text" x="0" y="-85.371" transform="scale(1, -1)"
	style="fill:#333333">120</text>
<path d="M17.5,40.515L25.5,40.515" style="fill:none;stroke:#333333;stroke-width:0.5" />
<path d="M17.5,64.546L25.5,64.546" style="fill:none;stroke:#333333;stroke-width:0.5" />
<path d="M17.5,88.577L25.5,88.577" style="fill:none;stroke:#333333;stroke-width:0.5" />
<path d="M21.5,28.5L25.5,28.5" style="fill:none;stroke:#333333;stroke-width:0.5" />
<path d="M21.5,52.531L25.5,52.531" style="fill:none;stroke:#333333;stroke-width:0.5" />
<path d="M21.5,76.561L25.5,76.561" style="fill:none;stroke:#333333;stroke-width:0.5" />
<path d="M25.5,26.097L25.5,90.98" style="fill:none;stroke:#333333;stroke-width:0.5" />
<path d="M31.25,70.554L31.25,70.554L32.558,70.554L33.865,70.554L35.173,80.166L36.48,72.957L37.788,60.941L39.096,54.934L40.403,60.941L41.711,58.538L43.018,66.949L44.326,62.143L45.634,66.949L46.941,71.755L48.249,65.747L49.557,70.554L50.864,70.554L52.172,71.755L53.479,66.949L54.787,63.344L56.095,65.747L57.402,63.344L58.71,69.352L60.017,70.554L61.325,71.755L62.633,68.151L63.94,59.74L65.248,64.546L66.555,59.74L67.863,54.934L69.171,64.546L70.478,64.546L71.786,64.546L73.093,63.344L74.401,69.352L75.709,74.158L77.016,68.151L78.324,65.747L79.632,66.949L80.939,66.949L82.247,65.747L83.554,65.747L84.862,66.949L86.17,69.352L87.477,68.151L88.785,66.949L90.092,68.151L91.4,66.949L92.708,65.747L94.015,62.143L95.323,64.546L96.63,62.143L97.938,58.538L99.246,62.143L100.55,62.143L101.86,60.941L103.17,66.949L104.48,65.747L105.78,71.755L107.09,63.344L108.4,48.926L109.71,62.143L111.01,62.143L112.32,57.337L113.63,57.337L114.94,56.135L116.24,54.934L117.55,54.934L118.86,51.329L120.17,51.329L121.47,48.926L122.78,48.926L124.09,48.926L125.4,50.127L126.71,51.329L128.01,50.127L129.32,48.926L130.63,46.523L131.94,46.523L133.24,47.724L134.55,46.523L135.86,46.523L137.17,45.321L138.47,46.523L139.78,47.724L141.09,48.926L142.4,47.724L143.7,39.314L145.01,28.5L146.32,30.903L147.63,32.104L148.93,44.12L150.24,52.531L151.55,47.724L152.86,50.127L154.17,47.724L155.47,50.127L156.78,56.135L158.09,56.135L159.4,60.941L160.7,47.724L162.01,44.12L163.32,45.321L164.63,46.523L165.93,44.12L167.24,44.12L168.55,47.724L169.86,52.531L171.16,48.926L172.47,48.926L173.78,45.321L175.09,48.926L176.39,48.926L177.7,47.724L179.01,47.724L180.32,47.724L181.62,47.724L182.93,47.724L184.24,48.926L185.55,50.127L186.86,46.523L188.16,45.321L189.47,48.926L190.78,51.329L192.09,44.12L193.39,41.717L194.7,40.515L196.01,39.314L197.32,39.314L198.62,46.523L199.93,42.918L201.24,41.717L202.55,41.717L203.85,45.321L205.16,51.329L206.47,51.329L207.78,54.934L209.08,53.732L210.39,50.127L211.7,52.531L213.01,46.523L214.32,47.724L215.62,60.941L216.93,46.523L218.24,42.918L219.55,40.515L220.85,39.314L222.16,44.12L223.47,42.918L224.78,40.515L226.08,44.12L227.39,42.918L228.7,40.515L230.01,40.515L231.31,42.918L232.62,44.12L233.93,41.717L235.24,36.911L236.54,40.515L237.85,41.717L239.16,42.918L240.47,41.717L241.77,42.918L243.08,39.314L244.39,35.709L245.7,34.507L247.01,33.306L248.31,40.515L249.62,38.112L250.93,41.717L252.24,34.507L253.54,38.112L254.85,36.911L256.16,35.709L257.47,36.911L258.77,36.911L260.08,34.507L261.39,40.515L262.7,34.507L264,53.732L265.31,51.329L266.62,47.724L267.93,45.321L269.23,45.321L270.54,46.523L271.85,46.523L273.16,45.321L274.47,45.321L275.77,46.523L277.08,45.321L278.39,47.724L279.7,46.523L281,45.321L282.31,41.717L283.62,40.515L284.93,40.515L286.23,39.314L287.54,45.321L288.85,36.911L290.16,35.709L291.46,35.709L292.77,35.709L294.08,36.911L295.39,38.112L296.69,42.918L298,40.515L299.31,30.903L300.62,29.701L301.93,26.097L303.23,30.903L304.54,29.701L305.85,33.306L307.16,33.306L308.46,40.515L309.77,44.12L311.08,45.321L312.39,46.523L313.69,45.321L315,39.314L316.31,38.112L317.62,34.507L318.92,42.918L320.23,45.321L321.54,86.174L322.85,90.98L324.15,74.158L325.46,63.344L326.77,64.546L328.08,69.352L329.38,59.74L330.69,54.934L332,65.747" style="fill:none;stroke:#EA4AAA" />
</g>
</svg>
 </g>
			</g>
			<g id="heart">
				<g transform="translate(0 -22)"> 
	<svg width="166" height="166" viewBox="0 0 221 221">
		<g transform="translate(110 110)">
			<path transform="translate(-50 -50)" fill="rgba(234, 74, 170, 255)" d="M92.71,7.27L92.71,7.27c-9.71-9.69-25.46-9.69-35.18,0L50,14.79l-7.54-7.52C32.75-2.42,17-2.42,7.29,7.27v0 c-9.71,9.69-9.71,25.41,0,35.1L50,85l42.71-42.63C102.43,32.68,102.43,16.96,92.71,7.27z"></path>
			<animateTransform 
			  attributeName="transform" 
			  type="scale" 
			  values="1; 1.5; 1.25; 1;" 
			  dur="594ms"
			  additive="sum"
			  repeatCount="indefinite">      
			</animateTransform>
		</g>
	</svg>
	 </g>
			</g>
			<g id="heart-text" transform="translate(  83 50)">
				<text id="current-bpm-text" class="text" text-anchor="middle" x="0" y="79">Current BPM</text>
				<text id="bpm-number" class="text" dominant-baseline="middle" text-anchor="middle" x="0" y="0">101</text>
				<style> #current-bpm-text {font-size: 19pt; fill: rgba(51, 51, 51, 255);}  #bpm-number {font-size: 35px; fill: rgba(255, 255, 255, 255);}</style>
			</g>
		</g>
	</g>
</svg>