
<svg xmlns="http://www.w3.org/2000/svg" id="banner" width="500pt" height="132pt">
	<!-- Generated via https://github.com/f0nkey/fitbit-readme-stats -->
	<rect width="100%" height="100%" fill="rgba(41, 27, 62, 255)"/>
	<style> .text {font: 600 9px "Arial", Sans-Serif; fill: rgba(41, 27, 62, 255);} </style>
	<g id="padding" transform="translate(0 10)">
		<text id="title" dominant-baseline="hanging" text-anchor="middle" style="font: 600 12pt 'Arial', Sans-Serif; fill: rgb(241, 241, 235, 255)" x="250pt"> 
			My Heart Rate From My FitBit Watch (Past 4 Hours)
		</text>
		
			<a href="https://github.com/f0nkey/fitbit-readme-stats">
				<text id="title" dominant-baseline="hanging" style="font: 600 8pt 'Arial', Sans-Serif; fill: rgba(255, 255, 255, 255);" x="5pt">View on GitHub</text>
			</a>
		
		
		
			<g id="tz">
				<title>Central Daylight Time (North America)</title>
				<text id="title" dominant-baseline="hanging" text-anchor="end" style="font: 600 8pt 'Arial', Sans-Serif; fill: rgba(255, 255, 255, 255);" x="495pt">Times in CDT</text>
			</g>
		
		<g id="main-content" transform="translate(0 18)">
			<g id="plot" transform="translate(166,0)">
				<!-- Generated by SVGo and Plotinum VG -->
				<g transform="translate(0,0)"> 
<!-- Generated by SVGo and Plotinum VG -->
<svg width="332pt" height="100pt" viewBox="0 0 332 100"
	xmlns="http://www.w3.org/2000/svg"
	xmlns:xlink="http://www.w3.org/1999/xlink">
<g transform="scale(1, -1) translate(0, -100)">
<path d="M0,0L332,0L332,95L0,95Z" style="fill:#291B3E" />
<text class="text" x="49.936" y="-3.2178" transform="scale(1, -1)"
	style="fill:#FFFFFF">21:00</text>
<text class="text" x="128.39" y="-3.2178" transform="scale(1, -1)"
	style="fill:#FFFFFF">22:00</text>
<text class="text" x="206.85" y="-3.2178" transform="scale(1, -1)"
	style="fill:#FFFFFF">23:00</text>
<text class="text" x="285.31" y="-3.2178" transform="scale(1, -1)"
	style="fill:#FFFFFF">00:00</text>
<path d="M41.711,16.847L41.711,20.847" style="fill:none;stroke:#A960FF;stroke-width:0.5" />
<path d="M61.325,12.847L61.325,20.847" style="fill:none;stroke:#A960FF;stroke-width:0.5" />
<path d="M80.939,16.847L80.939,20.847" style="fill:none;stroke:#A960FF;stroke-width:0.5" />
<path d="M100.55,16.847L100.55,20.847" style="fill:none;stroke:#A960FF;stroke-width:0.5" />
<path d="M120.17,16.847L120.17,20.847" style="fill:none;stroke:#A960FF;stroke-width:0.5" />
<path d="M139.78,12.847L139.78,20.847" style="fill:none;stroke:#A960FF;stroke-width:0.5" />
<path d="M159.4,16.847L159.4,20.847" style="fill:none;stroke:#A960FF;stroke-width:0.5" />
<path d="M179.01,16.847L179.01,20.847" style="fill:none;stroke:#A960FF;stroke-width:0.5" />
<path d="M198.62,16.847L198.62,20.847" style="fill:none;stroke:#A960FF;stroke-width:0.5" />
<path d="M218.24,12.847L218.24,20.847" style="fill:none;stroke:#A960FF;stroke-width:0.5" />
<path d="M237.85,16.847L237.85,20.847" style="fill:none;stroke:#A960FF;stroke-width:0.5" />
<path d="M257.47,16.847L257.47,20.847" style="fill:none;stroke:#A960FF;stroke-width:0.5" />
<path d="M277.08,16.847L277.08,20.847" style="fill:none;stroke:#A960FF;stroke-width:0.5" />
<path d="M296.69,12.847L296.69,20.847" style="fill:none;stroke:#A960FF;stroke-width:0.5" />
<path d="M316.31,16.847L316.31,20.847" style="fill:none;stroke:#A960FF;stroke-width:0.5" />
<path d="M31.25,20.847L332,20.847" style="fill:none;stroke:#A960FF;stroke-width:0.5" />
<text class="text" x="5" y="-37.31" transform="scale(1, -1)"
	style="fill:#FFFFFF">80</text>
<text class="text" x="0" y="-61.34" transform="scale(1, -1)"
	style="fill:#FFFFFF">100</text>
<text class="text" x="0" y="-85.371" transform="scale(1, -1)"
	style="fill:#FFFFFF">120</text>
<path d="M17.5,40.515L25.5,40.515" style="fill:none;stroke:#A960FF;stroke-width:0.5" />
<path d="M17.5,64.546L25.5,64.546" style="fill:none;stroke:#A960FF;stroke-width:0.5" />
<path d="M17.5,88.577L25.5,88.577" style="fill:none;stroke:#A960FF;stroke-width:0.5" />
<path d="M21.5,28.5L25.5,28.5" style="fill:none;stroke:#A960FF;stroke-width:0.5" />
<path d="M21.5,52.531L25.5,52.531" style="fill:none;stroke:#A960FF;stroke-width:0.5" />
<path d="M21.5,76.561L25.5,76.561" style="fill:none;stroke:#A960FF;stroke-width:0.5" />
<path d="M25.5,26.097L25.5,90.98" style="fill:none;stroke:#A960FF;stroke-width:0.5" />
<path d="M31.25,70.554L31.25,70.554L32.558,71.755L33.865,66.949L35.173,63.344L36.48,65.747L37.788,63.344L39.096,69.352L40.403,70.554L41.711,71.755L43.018,68.151L44.326,59.74L45.634,64.546L46.941,59.74L48.249,54.934L49.557,64.546L50.864,64.546L52.172,64.546L53.479,63.344L54.787,69.352L56.095,74.158L57.402,68.151L58.71,65.747L60.017,66.949L61.325,66.949L62.633,65.747L63.94,65.747L65.248,66.949L66.555,69.352L67.863,68.151L69.171,66.949L70.478,68.151L71.786,66.949L73.093,65.747L74.401,62.143L75.709,64.546L77.016,62.143L78.324,58.538L79.632,62.143L80.939,62.143L82.247,60.941L83.554,66.949L84.862,65.747L86.17,71.755L87.477,63.344L88.785,48.926L90.092,62.143L91.4,62.143L92.708,57.337L94.015,57.337L95.323,56.135L96.63,54.934L97.938,54.934L99.246,51.329L100.55,51.329L101.86,48.926L103.17,48.926L104.48,48.926L105.78,50.127L107.09,51.329L108.4,50.127L109.71,48.926L111.01,46.523L112.32,46.523L113.63,47.724L114.94,46.523L116.24,46.523L117.55,45.321L118.86,46.523L120.17,47.724L121.47,48.926L122.78,47.724L124.09,39.314L125.4,28.5L126.71,30.903L128.01,32.104L129.32,44.12L130.63,52.531L131.94,47.724L133.24,50.127L134.55,47.724L135.86,50.127L137.17,56.135L138.47,56.135L139.78,60.941L141.09,47.724L142.4,44.12L143.7,45.321L145.01,46.523L146.32,44.12L147.63,44.12L148.93,47.724L150.24,52.531L151.55,48.926L152.86,48.926L154.17,45.321L155.47,48.926L156.78,48.926L158.09,47.724L159.4,47.724L160.7,47.724L162.01,47.724L163.32,47.724L164.63,48.926L165.93,50.127L167.24,46.523L168.55,45.321L169.86,48.926L171.16,51.329L172.47,44.12L173.78,41.717L175.09,40.515L176.39,39.314L177.7,39.314L179.01,46.523L180.32,42.918L181.62,41.717L182.93,41.717L184.24,45.321L185.55,51.329L186.86,51.329L188.16,54.934L189.47,53.732L190.78,50.127L192.09,52.531L193.39,46.523L194.7,47.724L196.01,60.941L197.32,46.523L198.62,42.918L199.93,40.515L201.24,39.314L202.55,44.12L203.85,42.918L205.16,40.515L206.47,44.12L207.78,42.918L209.08,40.515L210.39,40.515L211.7,42.918L213.01,44.12L214.32,41.717L215.62,36.911L216.93,40.515L218.24,41.717L219.55,42.918L220.85,41.717L222.16,42.918L223.47,39.314L224.78,35.709L226.08,34.507L227.39,33.306L228.7,40.515L230.01,38.112L231.31,41.717L232.62,34.507L233.93,38.112L235.24,36.911L236.54,35.709L237.85,36.911L239.16,36.911L240.47,34.507L241.77,40.515L243.08,34.507L244.39,53.732L245.7,51.329L247.01,47.724L248.31,45.321L249.62,45.321L250.93,46.523L252.24,46.523L253.54,45.321L254.85,45.321L256.16,46.523L257.47,45.321L258.77,47.724L260.08,46.523L261.39,45.321L262.7,41.717L264,40.515L265.31,40.515L266.62,39.314L267.93,45.321L269.23,36.911L270.54,35.709L271.85,35.709L273.16,35.709L274.47,36.911L275.77,38.112L277.08,42.918L278.39,40.515L279.7,30.903L281,29.701L282.31,26.097L283.62,30.903L284.93,29.701L286.23,33.306L287.54,33.306L288.85,40.515L290.16,44.12L291.46,45.321L292.77,46.523L294.08,45.321L295.39,39.314L296.69,38.112L298,34.507L299.31,42.918L300.62,45.321L301.93,86.174L303.23,90.98L304.54,74.158L305.85,63.344L307.16,64.546L308.46,69.352L309.77,59.74L311.08,54.934L312.39,45.321L313.69,34.507L315,35.709L316.31,30.903L317.62,35.709L318.92,42.918L320.23,54.934L321.54,42.918L322.85,40.515L324.15,34.507L325.46,32.104L326.77,30.903L328.08,32.104L329.38,32.104L330.69,34.507L332,33.306" style="fill:none;stroke:#FF64DA" />
</g>
</svg>
 </g>
			</g>
			<g id="heart">
				<g transform="translate(0 -22)"> 
	<svg width="166" height="166" viewBox="0 0 221 221">
		<g transform="translate(110 110)">
			<path transform="translate(-50 -50)" fill="rgba(255, 100, 218, 255)" d="M92.71,7.27L92.71,7.27c-9.71-9.69-25.46-9.69-35.18,0L50,14.79l-7.54-7.52C32.75-2.42,17-2.42,7.29,7.27v0 c-9.71,9.69-9.71,25.41,0,35.1L50,85l42.71-42.63C102.43,32.68,102.43,16.96,92.71,7.27z"></path>
			<animateTransform 
			  attributeName="transform" 
			  type="scale" 
			  values="1; 1.5; 1.25; 1;" 
			  dur="810ms"
			  additive="sum"
			  repeatCount="indefinite">      
			</animateTransform>
		</g>
	</svg>
	 </g>
			</g>
			<g id="heart-text" transform="translate(  83 50)">
				<text id="current-bpm-text" class="text" text-anchor="middle" x="0" y="79">Current BPM</text>
				<text id="bpm-number" class="text" dominant-baseline="middle" text-anchor="middle" x="0" y="0">74</text>
				<style> #current-bpm-text {font-size: 19pt; fill: rgba(255, 255, 255, 255);}  #bpm-number {font-size: 35px; fill: rgba(41, 27, 62, 255);}</style>
			</g>
		</g>
	</g>
</svg>