
<svg xmlns="http://www.w3.org/2000/svg" id="banner" width="500pt" height="132pt">
	<!-- Generated via https://github.com/f0nkey/fitbit-readme-stats -->
	<rect width="100%" height="100%" fill="rgba(39, 40, 34, 255)"/>
	<style> .text {font: 600 9px "Arial", Sans-Serif; fill: rgba(39, 40, 34, 255);} </style>
	<g id="padding" transform="translate(0 10)">
		<text id="title" dominant-baseline="hanging" text-anchor="middle" style="font: 600 12pt 'Arial', Sans-Serif; fill: rgb(241, 241, 235, 255)" x="250pt"> 
			My Heart Rate From My FitBit Watch (Past 4 Hours)
		</text>
		
			<a href="https://github.com/f0nkey/fitbit-readme-stats">
				<text id="title" dominant-baseline="hanging" style="font: 600 8pt 'Arial', Sans-Serif; fill: rgba(226, 137, 5, 255);" x="5pt">View on GitHub</text>
			</a>
		
		
		
			<g id="tz">
				<title>Central Daylight Time (North America)</title>
				<text id="title" dominant-baseline="hanging" text-anchor="end" style="font: 600 8pt 'Arial', Sans-Serif; fill: rgba(226, 137, 5, 255);" x="495pt">Times in CDT</text>
			</g>
		
		<g id="main-content" transform="translate(0 18)">
			<g id="plot" transform="translate(166,0)">
				<!-- Generated by SVGo and Plotinum VG -->
				<g transform="translate(0,0)"> 
<!-- Generated by SVGo and Plotinum VG -->
<svg width="332pt" height="100pt" viewBox="0 0 332 100"
	xmlns="http://www.w3.org/2000/svg"
	xmlns:xlink="http://www.w3.org/1999/xlink">
<g transform="scale(1, -1) translate(0, -100)">
<path d="M0,0L332,0L332,95L0,95Z" style="fill:#272822" />
<text class="text" x="56.817" y="-3.2178" transform="scale(1, -1)"
	style="fill:#F1F1EB">21:00</text>
<text class="text" x="133.28" y="-3.2178" transform="scale(1, -1)"
	style="fill:#F1F1EB">22:00</text>
<text class="text" x="209.74" y="-3.2178" transform="scale(1, -1)"
	style="fill:#F1F1EB">23:00</text>
<text class="text" x="286.2" y="-3.2178" transform="scale(1, -1)"
	style="fill:#F1F1EB">00:00</text>
<path d="M49.091,16.847L49.091,20.847" style="fill:none;stroke:#E28905;stroke-width:0.5" />
<path d="M68.207,12.847L68.207,20.847" style="fill:none;stroke:#E28905;stroke-width:0.5" />
<path d="M87.322,16.847L87.322,20.847" style="fill:none;stroke:#E28905;stroke-width:0.5" />
<path d="M106.44,16.847L106.44,20.847" style="fill:none;stroke:#E28905;stroke-width:0.5" />
<path d="M125.55,16.847L125.55,20.847" style="fill:none;stroke:#E28905;stroke-width:0.5" />
<path d="M144.67,12.847L144.67,20.847" style="fill:none;stroke:#E28905;stroke-width:0.5" />
<path d="M163.78,16.847L163.78,20.847" style="fill:none;stroke:#E28905;stroke-width:0.5" />
<path d="M182.9,16.847L182.9,20.847" style="fill:none;stroke:#E28905;stroke-width:0.5" />
<path d="M202.01,16.847L202.01,20.847" style="fill:none;stroke:#E28905;stroke-width:0.5" />
<path d="M221.13,12.847L221.13,20.847" style="fill:none;stroke:#E28905;stroke-width:0.5" />
<path d="M240.25,16.847L240.25,20.847" style="fill:none;stroke:#E28905;stroke-width:0.5" />
<path d="M259.36,16.847L259.36,20.847" style="fill:none;stroke:#E28905;stroke-width:0.5" />
<path d="M278.48,16.847L278.48,20.847" style="fill:none;stroke:#E28905;stroke-width:0.5" />
<path d="M297.59,12.847L297.59,20.847" style="fill:none;stroke:#E28905;stroke-width:0.5" />
<path d="M316.71,16.847L316.71,20.847" style="fill:none;stroke:#E28905;stroke-width:0.5" />
<path d="M31.25,20.847L332,20.847" style="fill:none;stroke:#E28905;stroke-width:0.5" />
<text class="text" x="5" y="-37.31" transform="scale(1, -1)"
	style="fill:#F1F1EB">80</text>
<text class="text" x="0" y="-61.34" transform="scale(1, -1)"
	style="fill:#F1F1EB">100</text>
<text class="text" x="0" y="-85.371" transform="scale(1, -1)"
	style="fill:#F1F1EB">120</text>
<path d="M17.5,40.515L25.5,40.515" style="fill:none;stroke:#E28905;stroke-width:0.5" />
<path d="M17.5,64.546L25.5,64.546" style="fill:none;stroke:#E28905;stroke-width:0.5" />
<path d="M17.5,88.577L25.5,88.577" style="fill:none;stroke:#E28905;stroke-width:0.5" />
<path d="M21.5,28.5L25.5,28.5" style="fill:none;stroke:#E28905;stroke-width:0.5" />
<path d="M21.5,52.531L25.5,52.531" style="fill:none;stroke:#E28905;stroke-width:0.5" />
<path d="M21.5,76.561L25.5,76.561" style="fill:none;stroke:#E28905;stroke-width:0.5" />
<path d="M25.5,26.097L25.5,90.98" style="fill:none;stroke:#E28905;stroke-width:0.5" />
<path d="M31.25,66.949L31.25,66.949L32.524,62.143L33.799,66.949L35.073,71.755L36.347,65.747L37.622,70.554L38.896,70.554L40.171,71.755L41.445,66.949L42.719,63.344L43.994,65.747L45.268,63.344L46.542,69.352L47.817,70.554L49.091,71.755L50.365,68.151L51.64,59.74L52.914,64.546L54.189,59.74L55.463,54.934L56.737,64.546L58.012,64.546L59.286,64.546L60.56,63.344L61.835,69.352L63.109,74.158L64.383,68.151L65.658,65.747L66.932,66.949L68.207,66.949L69.481,65.747L70.755,65.747L72.03,66.949L73.304,69.352L74.578,68.151L75.853,66.949L77.127,68.151L78.401,66.949L79.676,65.747L80.95,62.143L82.225,64.546L83.499,62.143L84.773,58.538L86.048,62.143L87.322,62.143L88.596,60.941L89.871,66.949L91.145,65.747L92.419,71.755L93.694,63.344L94.968,48.926L96.243,62.143L97.517,62.143L98.791,57.337L100.07,57.337L101.34,56.135L102.61,54.934L103.89,54.934L105.16,51.329L106.44,51.329L107.71,48.926L108.99,48.926L110.26,48.926L111.53,50.127L112.81,51.329L114.08,50.127L115.36,48.926L116.63,46.523L117.91,46.523L119.18,47.724L120.46,46.523L121.73,46.523L123,45.321L124.28,46.523L125.55,47.724L126.83,48.926L128.1,47.724L129.38,39.314L130.65,28.5L131.92,30.903L133.2,32.104L134.47,44.12L135.75,52.531L137.02,47.724L138.3,50.127L139.57,47.724L140.85,50.127L142.12,56.135L143.39,56.135L144.67,60.941L145.94,47.724L147.22,44.12L148.49,45.321L149.77,46.523L151.04,44.12L152.31,44.12L153.59,47.724L154.86,52.531L156.14,48.926L157.41,48.926L158.69,45.321L159.96,48.926L161.24,48.926L162.51,47.724L163.78,47.724L165.06,47.724L166.33,47.724L167.61,47.724L168.88,48.926L170.16,50.127L171.43,46.523L172.7,45.321L173.98,48.926L175.25,51.329L176.53,44.12L177.8,41.717L179.08,40.515L180.35,39.314L181.62,39.314L182.9,46.523L184.17,42.918L185.45,41.717L186.72,41.717L188,45.321L189.27,51.329L190.55,51.329L191.82,54.934L193.09,53.732L194.37,50.127L195.64,52.531L196.92,46.523L198.19,47.724L199.47,60.941L200.74,46.523L202.01,42.918L203.29,40.515L204.56,39.314L205.84,44.12L207.11,42.918L208.39,40.515L209.66,44.12L210.94,42.918L212.21,40.515L213.48,40.515L214.76,42.918L216.03,44.12L217.31,41.717L218.58,36.911L219.86,40.515L221.13,41.717L222.4,42.918L223.68,41.717L224.95,42.918L226.23,39.314L227.5,35.709L228.78,34.507L230.05,33.306L231.33,40.515L232.6,38.112L233.87,41.717L235.15,34.507L236.42,38.112L237.7,36.911L238.97,35.709L240.25,36.911L241.52,36.911L242.79,34.507L244.07,40.515L245.34,34.507L246.62,53.732L247.89,51.329L249.17,47.724L250.44,45.321L251.72,45.321L252.99,46.523L254.26,46.523L255.54,45.321L256.81,45.321L258.09,46.523L259.36,45.321L260.64,47.724L261.91,46.523L263.18,45.321L264.46,41.717L265.73,40.515L267.01,40.515L268.28,39.314L269.56,45.321L270.83,36.911L272.1,35.709L273.38,35.709L274.65,35.709L275.93,36.911L277.2,38.112L278.48,42.918L279.75,40.515L281.03,30.903L282.3,29.701L283.57,26.097L284.85,30.903L286.12,29.701L287.4,33.306L288.67,33.306L289.95,40.515L291.22,44.12L292.49,45.321L293.77,46.523L295.04,45.321L296.32,39.314L297.59,38.112L298.87,34.507L300.14,42.918L301.42,45.321L302.69,86.174L303.96,90.98L305.24,74.158L306.51,63.344L307.79,64.546L309.06,69.352L310.34,59.74L311.61,54.934L312.88,45.321L314.16,34.507L315.43,35.709L316.71,30.903L317.98,35.709L319.26,42.918L320.53,54.934L321.81,42.918L323.08,40.515L324.35,34.507L325.63,32.104L326.9,30.903L328.18,32.104L329.45,32.104L330.73,34.507L332,33.306" style="fill:none;stroke:#EB1F6A" />
</g>
</svg>
 </g>
			</g>
			<g id="heart">
				<g transform="translate(0 -22)"> 
	<svg width="166" height="166" viewBox="0 0 221 221">
		<g transform="translate(110 110)">
			<path transform="translate(-50 -50)" fill="rgba(235, 31, 106, 255)" d="M92.71,7.27L92.71,7.27c-9.71-9.69-25.46-9.69-35.18,0L50,14.79l-7.54-7.52C32.75-2.42,17-2.42,7.29,7.27v0 c-9.71,9.69-9.71,25.41,0,35.1L50,85l42.71-42.63C102.43,32.68,102.43,16.96,92.71,7.27z"></path>
			<animateTransform 
			  attributeName="transform" 
			  type="scale" 
			  values="1; 1.5; 1.25; 1;" 
			  dur="810ms"
			  additive="sum"
			  repeatCount="indefinite">      
			</animateTransform>
		</g>
	</svg>
	 </g>
			</g>
			<g id="heart-text" transform="translate(  83 50)">
				<text id="current-bpm-text" class="text" text-anchor="middle" x="0" y="79">Current BPM</text>
				<text id="bpm-number" class="text" dominant-baseline="middle" text-anchor="middle" x="0" y="0">74</text>
				<style> #current-bpm-text {font-size: 19pt; fill: rgb(241, 241, 235, 255);}  #bpm-number {font-size: 35px; fill: rgba(39, 40, 34, 255);}</style>
			</g>
		</g>
	</g>
</svg>