
<svg xmlns="http://www.w3.org/2000/svg" id="banner" width="500pt" height="132pt">
	<!-- Generated via https://github.com/f0nkey/fitbit-readme-stats -->
	<rect width="100%" height="100%" fill="rgba(54, 57, 63, 255)"/>
	<style> .text {font: 600 9px "Arial", Sans-Serif; fill: rgba(54, 57, 63, 255);} </style>
	<g id="padding" transform="translate(0 10)">
		<text id="title" dominant-baseline="hanging" text-anchor="middle" style="font: 600 12pt 'Arial', Sans-Serif; fill: rgba(250, 166, 39, 255)" x="250pt"> 
			My Heart Rate From My FitBit Watch (Past 4 Hours)
		</text>
		
			<a href="https://github.com/f0nkey/fitbit-readme-stats">
				<text id="title" dominant-baseline="hanging" style="font: 600 8pt 'Arial', Sans-Serif; fill: rgba(255, 255, 255, 255);" x="5pt">View on GitHub</text>
			</a>
		
		
		
			<g id="tz">
				<title>Central Daylight Time (North America)</title>
				<text id="title" dominant-baseline="hanging" text-anchor="end" style="font: 600 8pt 'Arial', Sans-Serif; fill: rgba(255, 255, 255, 255);" x="495pt">Times in CDT</text>
			</g>
		
		<g id="main-content" transform="translate(0 18)">
			<g id="plot" transform="translate(166,0)">
				<!-- Generated by SVGo and Plotinum VG -->
				<g transform="translate(0,0)"> 
<!-- Generated by SVGo and Plotinum VG -->
<svg width="332pt" height="100pt" viewBox="0 0 332 100"
	xmlns="http://www.w3.org/2000/svg"
	xmlns:xlink="http://www.w3.org/1999/xlink">
<g transform="scale(1, -1) translate(0, -100)">
<path d="M0,0L332,0L332,95L0,95Z" style="fill:#36393F" />
<text class="text" x="92.174" y="-3.2178" transform="scale(1, -1)"
	style="fill:#FFFFFF">21:00</text>
<text class="text" x="170.05" y="-3.2178" transform="scale(1, -1)"
	style="fill:#FFFFFF">22:00</text>
<text class="text" x="247.93" y="-3.2178" transform="scale(1, -1)"
	style="fill:#FFFFFF">23:00</text>
<path d="M45.156,16.847L45.156,20.847" style="fill:none;stroke:#FFFFFF;stroke-width:0.5" />
<path d="M64.625,16.847L64.625,20.847" style="fill:none;stroke:#FFFFFF;stroke-width:0.5" />
<path d="M84.094,16.847L84.094,20.847" style="fill:none;stroke:#FFFFFF;stroke-width:0.5" />
<path d="M103.56,12.847L103.56,20.847" style="fill:none;stroke:#FFFFFF;stroke-width:0.5" />
<path d="M123.03,16.847L123.03,20.847" style="fill:none;stroke:#FFFFFF;stroke-width:0.5" />
<path d="M142.5,16.847L142.5,20.847" style="fill:none;stroke:#FFFFFF;stroke-width:0.5" />
<path d="M161.97,16.847L161.97,20.847" style="fill:none;stroke:#FFFFFF;stroke-width:0.5" />
<path d="M181.44,12.847L181.44,20.847" style="fill:none;stroke:#FFFFFF;stroke-width:0.5" />
<path d="M200.91,16.847L200.91,20.847" style="fill:none;stroke:#FFFFFF;stroke-width:0.5" />
<path d="M220.38,16.847L220.38,20.847" style="fill:none;stroke:#FFFFFF;stroke-width:0.5" />
<path d="M239.85,16.847L239.85,20.847" style="fill:none;stroke:#FFFFFF;stroke-width:0.5" />
<path d="M259.32,12.847L259.32,20.847" style="fill:none;stroke:#FFFFFF;stroke-width:0.5" />
<path d="M278.78,16.847L278.78,20.847" style="fill:none;stroke:#FFFFFF;stroke-width:0.5" />
<path d="M298.25,16.847L298.25,20.847" style="fill:none;stroke:#FFFFFF;stroke-width:0.5" />
<path d="M317.72,16.847L317.72,20.847" style="fill:none;stroke:#FFFFFF;stroke-width:0.5" />
<path d="M30.879,20.847L332,20.847" style="fill:none;stroke:#FFFFFF;stroke-width:0.5" />
<text class="text" x="4.6289" y="-25.647" transform="scale(1, -1)"
	style="fill:#FFFFFF">70</text>
<text class="text" x="4.6289" y="-53.209" transform="scale(1, -1)"
	style="fill:#FFFFFF">90</text>
<text class="text" x="0" y="-80.77" transform="scale(1, -1)"
	style="fill:#FFFFFF">110</text>
<path d="M17.129,28.853L25.129,28.853" style="fill:none;stroke:#FFFFFF;stroke-width:0.5" />
<path d="M17.129,56.414L25.129,56.414" style="fill:none;stroke:#FFFFFF;stroke-width:0.5" />
<path d="M17.129,83.975L25.129,83.975" style="fill:none;stroke:#FFFFFF;stroke-width:0.5" />
<path d="M21.129,42.633L25.129,42.633" style="fill:none;stroke:#FFFFFF;stroke-width:0.5" />
<path d="M21.129,70.195L25.129,70.195" style="fill:none;stroke:#FFFFFF;stroke-width:0.5" />
<path d="M25.129,26.097L25.129,95" style="fill:none;stroke:#FFFFFF;stroke-width:0.5" />
<path d="M30.879,77.085L30.879,77.085L32.177,77.085L33.475,78.463L34.773,79.841L36.071,81.219L37.369,95L38.667,82.597L39.964,83.975L41.262,79.841L42.56,71.573L43.858,63.304L45.156,75.707L46.454,86.732L47.752,81.219L49.05,74.329L50.348,77.085L51.646,78.463L52.944,75.707L54.242,77.085L55.54,77.085L56.838,77.085L58.136,88.11L59.433,79.841L60.731,66.061L62.029,59.17L63.327,66.061L64.625,63.304L65.923,72.951L67.221,67.439L68.519,72.951L69.817,78.463L71.115,71.573L72.413,77.085L73.711,77.085L75.009,78.463L76.307,72.951L77.605,68.817L78.903,71.573L80.2,68.817L81.498,75.707L82.796,77.085L84.094,78.463L85.392,74.329L86.69,64.683L87.988,70.195L89.286,64.683L90.584,59.17L91.882,70.195L93.18,70.195L94.478,70.195L95.776,68.817L97.074,75.707L98.372,81.219L99.67,74.329L100.97,71.573L102.27,72.951L103.56,72.951L104.86,71.573L106.16,71.573L107.46,72.951L108.76,75.707L110.05,74.329L111.35,72.951L112.65,74.329L113.95,72.951L115.24,71.573L116.54,67.439L117.84,70.195L119.14,67.439L120.44,63.304L121.73,67.439L123.03,67.439L124.33,66.061L125.63,72.951L126.93,71.573L128.22,78.463L129.52,68.817L130.82,52.28L132.12,67.439L133.42,67.439L134.71,61.926L136.01,61.926L137.31,60.548L138.61,59.17L139.91,59.17L141.2,55.036L142.5,55.036L143.8,52.28L145.1,52.28L146.4,52.28L147.69,53.658L148.99,55.036L150.29,53.658L151.59,52.28L152.88,49.524L154.18,49.524L155.48,50.902L156.78,49.524L158.08,49.524L159.37,48.146L160.67,49.524L161.97,50.902L163.27,52.28L164.57,50.902L165.86,41.255L167.16,28.853L168.46,31.609L169.76,32.987L171.06,46.768L172.35,56.414L173.65,50.902L174.95,53.658L176.25,50.902L177.55,53.658L178.84,60.548L180.14,60.548L181.44,66.061L182.74,50.902L184.04,46.768L185.33,48.146L186.63,49.524L187.93,46.768L189.23,46.768L190.53,50.902L191.82,56.414L193.12,52.28L194.42,52.28L195.72,48.146L197.01,52.28L198.31,52.28L199.61,50.902L200.91,50.902L202.21,50.902L203.5,50.902L204.8,50.902L206.1,52.28L207.4,53.658L208.7,49.524L209.99,48.146L211.29,52.28L212.59,55.036L213.89,46.768L215.19,44.012L216.48,42.633L217.78,41.255L219.08,41.255L220.38,49.524L221.68,45.39L222.97,44.012L224.27,44.012L225.57,48.146L226.87,55.036L228.17,55.036L229.46,59.17L230.76,57.792L232.06,53.658L233.36,56.414L234.65,49.524L235.95,50.902L237.25,66.061L238.55,49.524L239.85,45.39L241.14,42.633L242.44,41.255L243.74,46.768L245.04,45.39L246.34,42.633L247.63,46.768L248.93,45.39L250.23,42.633L251.53,42.633L252.83,45.39L254.12,46.768L255.42,44.012L256.72,38.499L258.02,42.633L259.32,44.012L260.61,45.39L261.91,44.012L263.21,45.39L264.51,41.255L265.81,37.121L267.1,35.743L268.4,34.365L269.7,42.633L271,39.877L272.29,44.012L273.59,35.743L274.89,39.877L276.19,38.499L277.49,37.121L278.78,38.499L280.08,38.499L281.38,35.743L282.68,42.633L283.98,35.743L285.27,57.792L286.57,55.036L287.87,50.902L289.17,48.146L290.47,48.146L291.76,49.524L293.06,49.524L294.36,48.146L295.66,48.146L296.96,49.524L298.25,48.146L299.55,50.902L300.85,49.524L302.15,48.146L303.45,44.012L304.74,42.633L306.04,42.633L307.34,41.255L308.64,48.146L309.94,38.499L311.23,37.121L312.53,37.121L313.83,37.121L315.13,38.499L316.42,39.877L317.72,45.39L319.02,42.633L320.32,31.609L321.62,30.231L322.91,26.097L324.21,31.609L325.51,30.231L326.81,34.365L328.11,34.365L329.4,42.633L330.7,46.768L332,48.146" style="fill:none;stroke:#F1E05A" />
</g>
</svg>
 </g>
			</g>
			<g id="heart">
				<g transform="translate(0 -22)"> 
	<svg width="166" height="166" viewBox="0 0 221 221">
		<g transform="translate(110 110)">
			<path transform="translate(-50 -50)" fill="rgba(241, 224, 90, 255)" d="M92.71,7.27L92.71,7.27c-9.71-9.69-25.46-9.69-35.18,0L50,14.79l-7.54-7.52C32.75-2.42,17-2.42,7.29,7.27v0 c-9.71,9.69-9.71,25.41,0,35.1L50,85l42.71-42.63C102.43,32.68,102.43,16.96,92.71,7.27z"></path>
			<animateTransform 
			  attributeName="transform" 
			  type="scale" 
			  values="1; 1.5; 1.25; 1;" 
			  dur="714ms"
			  additive="sum"
			  repeatCount="indefinite">      
			</animateTransform>
		</g>
	</svg>
	 </g>
			</g>
			<g id="heart-text" transform="translate(  83 50)">
				<text id="current-bpm-text" class="text" text-anchor="middle" x="0" y="79">Current BPM</text>
				<text id="bpm-number" class="text" dominant-baseline="middle" text-anchor="middle" x="0" y="0">84</text>
				<style> #current-bpm-text {font-size: 19pt; fill: rgba(255, 255, 255, 255);}  #bpm-number {font-size: 35px; fill: rgba(54, 57, 63, 255);}</style>
			</g>
		</g>
	</g>
</svg>